# xmcd CD database file
# Copyright (C) 1993-1996 Ti Kan
#
# Track frame offsets:
#	150
#	16357
#	30917
#	51730
#	58937
#	79095
#	102650
#	122227
#	143992
#	156755
#	180047
#
# Disc length: 2680 seconds
#
# Revision: 1
# Processed by: cddbd v1.4b41PL1 Copyright (c) Steve Scherf et al.
# Submitted via: CDValet v3.01 - Copyright (c) 1997 Greg Leichner
#
DISCID=920a760b
DTITLE=Bruce Carroll - One Summer Evening . . . Live
DYEAR=1900
DGENRE=
TTITLE0=If We Only Had The Heart
TTITLE1=Walk On
TTITLE2=Shadow And Light
TTITLE3=Medley: The Great Exchange - Driving Nails - Who Will Be Jesus
TTITLE4=I'm Still Here
TTITLE5=Sometimes Miracles Hide
TTITLE6=Living In The Pages
TTITLE7=Simon Peter
TTITLE8=Above And Beyond
TTITLE9=Highway Of Life
TTITLE10=I Know Where I Stand
EXTD=
EXTT0=
EXTT1=
EXTT2=
EXTT3=
EXTT4=
EXTT5=
EXTT6=
EXTT7=
EXTT8=
EXTT9=
EXTT10=
PLAYORDER=
